#format: frame checksums
#version: 1
#hash: MD5
#tb 0: 1/25
#stream#, dts,        pts, duration,     size, hash
0,         -1,          0,        1,    17380, 7313df7b7187fdd433dfad10490b14bc
0,          0,          1,        1,     4225, 4450994ef21b88ec18794e313bb461d3
0,          1,          2,        1,     4180, ac595aabb6f9029181a5af7d1a081eaf
0,          2,          3,        1,     4053, 42b2296dca9a8ef489b62b38d080ce51
0,          3,          4,        1,     4125, 1e9df941f1e58c04d0d98cf375227c4c
0,          4,          5,        1,     4258, 54ff384fd7c6a5bd62bf4df2e94c1177
0,          5,          6,        1,     4287, aef751149139d16e80948bf464fd81df
0,          6,          7,        1,     4333, bf717e4af0575beed908a1373899efe4
0,          7,          8,        1,     4196, e68be96a1ae86f79712a20e76c1fed52
0,          8,          9,        1,     4355, 0b93f54a231d2d40a84792f25189a285
0,          9,         10,        1,     4275, 3787226739b2e2e520dbf96d4cabc8ab
0,         10,         11,        1,     4466, 559ee6a10d8ad41542c6272e7af9598f
0,         11,         12,        1,    17037, d575e14660f9d10a03646a4380f7663a
0,         12,         13,        1,     4605, 21f25a485a2981b311ff543e45dde973
0,         13,         14,        1,     4869, 12e625ae1a0c822f878cb628ba68f4aa
0,         14,         15,        1,     4698, 5a82d684ed50d5ceba476e16df00f0f4
0,         15,         16,        1,     4721, 06ba01c5b457624d578af6e6e4c077ae
0,         16,         17,        1,     4713, cd2b7b6e63cee8dac8f690a7d80a99d3
0,         17,         18,        1,     4912, f1bc62c7b851fadb53c59c80cc4f55e7
0,         18,         19,        1,     5055, a481436ac3826c2c3121d3704d2c1d15
0,         19,         20,        1,     5249, a131d8e2addbb10b8e5afbe1af3bfe8e
0,         20,         21,        1,     5336, ecfd70ba68a19449617f635c477631c5
0,         21,         22,        1,     5354, 524f08a41135b9df95a67d27fdcb933d
0,         22,         23,        1,     5467, 92d15c4d2be0cc00231d2b17b53f1f4f
0,         23,         24,        1,    19596, da769fe7162fc94274bebca7f9bd3721
0,         24,         25,        1,     5547, 313f980985f0c28a6af7003bff5c4102
0,         25,         26,        1,     5513, 1578f21807a6752fbd7506cbb20a21bc
0,         26,         27,        1,     5684, fe15d5035bc57db8a8eb72b226226c9d
0,         27,         28,        1,     5644, 9a876a3b01f695d00229ad6ee8be6a39
0,         28,         29,        1,     5791, 2cdda6a7411e16f5c6527f75cd8c706b
0,         29,         30,        1,     6429, 1f24f1138ffd4c2d58b9f40075e74e03
0,         30,         31,        1,     6293, 0f1eb0466ff35b092441004dcdcb5250
0,         31,         32,        1,     6111, 96d879391fc0659a2e87da3049cc7193
0,         32,         33,        1,     6733, e7bedd09a12a2dcc75bf87bec451bdda
0,         33,         34,        1,     6389, 6645e2318795bfa25b0c01bdb1a26948
0,         34,         35,        1,     6641, 5221582a048f0bc2687328ca19b1e9d4
0,         35,         36,        1,    21633, 309de63ffcfdd8473c719e1a1b217a0a
0,         36,         37,        1,     6453, c2f202af5f5c3105ab92a5b386978a63
0,         37,         38,        1,     6844, 56b0c3d90de866a646cac4fa31bb29d0
0,         38,         39,        1,     6564, 0dad89c3db95e838b45bcb549d3afa58
0,         39,         40,        1,     6861, 8b05d1cdbd769d1bebd4f0cabbd0b7ed
0,         40,         41,        1,     6774, c11c7662967af26a1c16ba881190bc7f
0,         41,         42,        1,     7064, a9eeb08f6f28d734575bf571a5c9c5b8
0,         42,         43,        1,     6958, a0cc78a62bdccdd44275757757951535
0,         43,         44,        1,     6850, db13122fcd5f474be5a4ec91ebe12d5e
0,         44,         45,        1,     6958, e0b344a14250d8dfa63b0628a908b861
0,         45,         46,        1,     7055, fcd3777a690a7f9edc01f13a7cb309f0
0,         46,         47,        1,     7180, 28180786c1f096a26a00570f2f5f9240
0,         47,         48,        1,    22733, a67cf6a0cba91e17cc6e14aaf7fbdc41
0,         48,         49,        1,     6767, ced8eb3e6ebb3f6095c1e417268bf1dc
